<svg width="1920" height="1080" viewBox="0 0 1920 1080" fill="none" xmlns="http://www.w3.org/2000/svg">
<g clip-path="url(#clip0)">
<rect width="1920" height="1080" fill="#26CDEF"/>
<rect width="1920" height="1080" fill="url(#paint0_linear)"/>
<path d="M-38 -21H1202.68C1202.8 -20.8039 1202.94 -20.5775 1203.1 -20.3213C1203.74 -19.2518 1204.69 -17.6636 1205.88 -15.5992C1208.25 -11.4701 1211.59 -5.4372 1215.43 2.15989C1223.13 17.3575 1232.84 38.7965 1240.95 63.7619C1257.19 113.765 1266.83 177.55 1241.26 233.691C1228.58 261.51 1200.63 284.608 1164.39 305.06C1128.2 325.486 1084.07 343.098 1039.43 360.108C1032.44 362.77 1025.45 365.416 1018.47 368.057C980.89 382.27 943.796 396.301 911.818 411.436C873.96 429.354 842.874 448.992 826.629 472.664C794.388 519.645 794.432 565.713 798.765 606.74C799.558 614.249 800.488 621.548 801.392 628.644C802.971 641.029 804.47 652.796 805.024 663.98C805.891 681.492 804.393 697.099 797.345 710.58C782.887 738.234 744.22 786.796 703.707 834.939C683.483 858.972 662.849 882.844 644.623 903.875C642.65 906.151 640.705 908.395 638.792 910.602C623.04 928.774 609.436 944.467 600.003 955.755C578.277 981.755 578.42 1019.04 583.723 1049.33C586.386 1064.54 590.378 1078.15 593.702 1087.95C595.365 1092.85 596.862 1096.8 597.946 1099.54C598.157 1100.07 598.353 1100.56 598.532 1101H-38V-21Z" fill="#0D2E57"/>
<path d="M-38 -21H1202.68C1202.8 -20.8039 1202.94 -20.5775 1203.1 -20.3213C1203.74 -19.2518 1204.69 -17.6636 1205.88 -15.5992C1208.25 -11.4701 1211.59 -5.4372 1215.43 2.15989C1223.13 17.3575 1232.84 38.7965 1240.95 63.7619C1257.19 113.765 1266.83 177.55 1241.26 233.691C1228.58 261.51 1200.63 284.608 1164.39 305.06C1128.2 325.486 1084.07 343.098 1039.43 360.108C1032.44 362.77 1025.45 365.416 1018.47 368.057C980.89 382.27 943.796 396.301 911.818 411.436C873.96 429.354 842.874 448.992 826.629 472.664C794.388 519.645 794.432 565.713 798.765 606.74C799.558 614.249 800.488 621.548 801.392 628.644C802.971 641.029 804.47 652.796 805.024 663.98C805.891 681.492 804.393 697.099 797.345 710.58C782.887 738.234 744.22 786.796 703.707 834.939C683.483 858.972 662.849 882.844 644.623 903.875C642.65 906.151 640.705 908.395 638.792 910.602C623.04 928.774 609.436 944.467 600.003 955.755C578.277 981.755 578.42 1019.04 583.723 1049.33C586.386 1064.54 590.378 1078.15 593.702 1087.95C595.365 1092.85 596.862 1096.8 597.946 1099.54C598.157 1100.07 598.353 1100.56 598.532 1101H-38V-21Z" fill="url(#paint1_linear)"/>
<path d="M-38 -21H1202.68C1202.8 -20.8039 1202.94 -20.5775 1203.1 -20.3213C1203.74 -19.2518 1204.69 -17.6636 1205.88 -15.5992C1208.25 -11.4701 1211.59 -5.4372 1215.43 2.15989C1223.13 17.3575 1232.84 38.7965 1240.95 63.7619C1257.19 113.765 1266.83 177.55 1241.26 233.691C1228.58 261.51 1200.63 284.608 1164.39 305.06C1128.2 325.486 1084.07 343.098 1039.43 360.108C1032.44 362.77 1025.45 365.416 1018.47 368.057C980.89 382.27 943.796 396.301 911.818 411.436C873.96 429.354 842.874 448.992 826.629 472.664C794.388 519.645 794.432 565.713 798.765 606.74C799.558 614.249 800.488 621.548 801.392 628.644C802.971 641.029 804.47 652.796 805.024 663.98C805.891 681.492 804.393 697.099 797.345 710.58C782.887 738.234 744.22 786.796 703.707 834.939C683.483 858.972 662.849 882.844 644.623 903.875C642.65 906.151 640.705 908.395 638.792 910.602C623.04 928.774 609.436 944.467 600.003 955.755C578.277 981.755 578.42 1019.04 583.723 1049.33C586.386 1064.54 590.378 1078.15 593.702 1087.95C595.365 1092.85 596.862 1096.8 597.946 1099.54C598.157 1100.07 598.353 1100.56 598.532 1101H-38V-21Z" stroke="#0EB4DA" stroke-width="4"/>
<rect x="252.571" y="107.533" width="93.7531" height="92.9743" transform="rotate(47.0366 252.571 107.533)" stroke="#28568E" stroke-width="5"/>
<rect x="252.571" y="107.533" width="93.7531" height="92.9743" transform="rotate(47.0366 252.571 107.533)" stroke="#4B7CB8" stroke-width="5"/>
<path d="M1949.27 1082.35H1310.27C1311.24 1080.31 1312.53 1077.44 1313.97 1073.79C1317.11 1065.82 1320.98 1054.13 1323.95 1039.14C1329.89 1009.16 1332.23 966.011 1317.93 913.195C1310.63 886.212 1288.43 861.808 1260.79 837.281C1248.53 826.405 1235.1 815.425 1221.3 804.139C1219.5 802.661 1217.68 801.178 1215.87 799.69C1200.15 786.816 1184.06 773.499 1168.64 759.368C1137.79 731.094 1109.78 699.694 1092.94 662.402C1076.14 625.183 1070.4 581.958 1084.34 529.861C1098.32 477.636 1120.84 447.365 1147.63 430.014C1174.49 412.624 1206 407.973 1238.44 407.724C1254.65 407.599 1271.01 408.573 1287.1 409.572C1287.76 409.614 1288.43 409.655 1289.09 409.696C1304.45 410.653 1319.55 411.593 1333.85 411.548C1363.6 411.453 1390.54 407.108 1409.73 389.121C1428.72 371.329 1439.56 345.473 1447.04 316.052C1452.65 293.952 1456.43 269.568 1460.28 244.784C1461.55 236.593 1462.82 228.357 1464.18 220.146C1475.13 153.652 1491.06 88.6536 1547.27 55.4648C1575.56 38.7617 1614.92 27.136 1658.23 19.1391C1701.5 11.1501 1748.52 6.81742 1792.01 4.59532C1835.5 2.37359 1875.41 2.26388 1904.46 2.70993C1918.98 2.93293 1930.78 3.29479 1938.95 3.60076C1943.03 3.75374 1946.21 3.89274 1948.36 3.9934C1948.69 4.00877 1948.99 4.02325 1949.27 4.03674V1082.35Z" stroke="#0EB4DA" stroke-width="5"/>
<path d="M2026.05 1105.41H1387.05C1388.02 1103.37 1389.31 1100.5 1390.75 1096.85C1393.89 1088.88 1397.76 1077.19 1400.73 1062.2C1406.67 1032.22 1409.01 989.072 1394.71 936.255C1387.41 909.273 1365.21 884.868 1337.56 860.342C1325.31 849.466 1311.88 838.485 1298.08 827.199C1296.28 825.722 1294.46 824.239 1292.65 822.75C1276.92 809.876 1260.84 796.559 1245.42 782.428C1214.57 754.154 1186.56 722.755 1169.72 685.462C1152.92 648.244 1147.18 605.019 1161.12 552.921C1175.1 500.697 1197.62 470.426 1224.41 453.075C1251.27 435.685 1282.78 431.034 1315.22 430.785C1331.43 430.66 1347.79 431.633 1363.88 432.633C1364.54 432.674 1365.21 432.716 1365.87 432.757C1381.23 433.714 1396.33 434.654 1410.63 434.608C1440.38 434.514 1467.32 430.168 1486.51 412.181C1505.5 394.389 1516.34 368.533 1523.82 339.113C1529.43 317.013 1533.21 292.629 1537.06 267.845C1538.33 259.653 1539.6 251.418 1540.96 243.207C1551.91 176.713 1567.84 111.714 1624.05 78.5254C1652.34 61.8223 1691.7 50.1967 1735.01 42.1997C1778.28 34.2108 1825.3 29.878 1868.79 27.6559C1912.28 25.4342 1952.19 25.3245 1981.24 25.7705C1995.76 25.9935 2007.56 26.3554 2015.73 26.6614C2019.81 26.8143 2022.99 26.9533 2025.14 27.054C2025.47 27.0694 2025.77 27.0839 2026.05 27.0973V1105.41Z" stroke="#0EB4DA" stroke-width="5"/>
<path d="M2096.61 1117.44H1457.6C1458.57 1115.4 1459.86 1112.53 1461.3 1108.88C1464.44 1100.91 1468.31 1089.22 1471.28 1074.23C1477.23 1044.25 1479.57 1001.1 1465.27 948.287C1457.96 921.304 1435.76 896.9 1408.12 872.374C1395.86 861.497 1382.44 850.517 1368.64 839.231C1366.83 837.753 1365.02 836.27 1363.2 834.782C1347.48 821.908 1331.39 808.591 1315.97 794.46C1285.12 766.186 1257.11 734.786 1240.27 697.494C1223.47 660.276 1217.74 617.051 1231.68 564.953C1245.65 512.728 1268.17 482.458 1294.96 465.107C1321.82 447.716 1353.33 443.066 1385.77 442.816C1401.98 442.692 1418.35 443.665 1434.43 444.665C1435.1 444.706 1435.76 444.747 1436.42 444.789C1451.79 445.745 1466.89 446.686 1481.18 446.64C1510.94 446.546 1537.87 442.2 1557.07 424.213C1576.05 406.421 1586.89 380.565 1594.37 351.144C1599.99 329.044 1603.77 304.66 1607.61 279.877C1608.88 271.685 1610.16 263.45 1611.51 255.239C1622.46 188.745 1638.4 123.746 1694.61 90.5571C1722.9 73.854 1762.25 62.2283 1805.56 54.2313C1848.83 46.2424 1895.85 41.9097 1939.35 39.6876C1982.83 37.4659 2022.75 37.3562 2051.79 37.8022C2066.31 38.0252 2078.11 38.3871 2086.28 38.693C2090.37 38.846 2093.54 38.985 2095.69 39.0857C2096.02 39.1011 2096.33 39.1155 2096.61 39.129V1117.44Z" stroke="#0EB4DA" stroke-width="5"/>
<path d="M2176.5 1138.5H1537.49C1538.47 1136.45 1539.75 1133.59 1541.19 1129.94C1544.33 1121.97 1548.2 1110.28 1551.17 1095.29C1557.12 1065.3 1559.46 1022.16 1545.16 969.342C1537.85 942.36 1515.65 917.955 1488.01 893.429C1475.75 882.553 1462.33 871.573 1448.53 860.286C1446.72 858.809 1444.91 857.326 1443.09 855.837C1427.37 842.963 1411.28 829.646 1395.87 815.515C1365.02 787.242 1337 755.842 1320.17 718.549C1303.36 681.331 1297.63 638.106 1311.57 586.008C1325.54 533.784 1348.06 503.513 1374.86 486.162C1401.71 468.772 1433.22 464.121 1465.66 463.872C1481.87 463.747 1498.24 464.72 1514.32 465.72C1514.99 465.761 1515.65 465.803 1516.32 465.844C1531.68 466.801 1546.78 467.741 1561.08 467.696C1590.83 467.601 1617.76 463.256 1636.96 445.268C1655.94 427.476 1666.78 401.62 1674.26 372.2C1679.88 350.1 1683.66 325.716 1687.5 300.932C1688.77 292.74 1690.05 284.505 1691.4 276.294C1702.35 209.8 1718.29 144.801 1774.5 111.612C1802.79 94.9094 1842.14 83.2837 1885.46 75.2867C1928.73 67.2978 1975.75 62.9651 2019.24 60.743C2062.72 58.5212 2102.64 58.4115 2131.68 58.8576C2146.2 59.0806 2158.01 59.4424 2166.17 59.7484C2170.26 59.9014 2173.43 60.0404 2175.59 60.141C2175.91 60.1564 2176.22 60.1709 2176.5 60.1844V1138.5Z" stroke="#0EB4DA" stroke-width="5"/>
<g clip-path="url(#clip1)">
<path d="M116.517 926.643C92.8957 920.441 72.0229 906.419 57.2441 886.824C42.4653 867.229 34.6364 843.196 35.0125 818.577C35.1061 812.444 35.7454 806.181 38.3015 800.615C40.8576 795.048 45.6056 790.234 51.5447 788.915C58.0263 787.476 64.8659 790.418 69.6962 795.009C74.5266 799.601 77.6938 805.658 80.6077 811.673C98.1592 847.904 111.494 886.779 116.487 926.789L116.517 926.643Z" fill="#F2F2F2"/>
<path d="M48.6042 790.124L60.9052 818.317L73.2062 846.511C77.102 855.44 80.9903 864.373 85.017 873.243C89.0084 882.035 93.1365 890.766 97.5403 899.356C101.938 907.934 106.612 916.372 111.685 924.564C112.317 925.584 112.955 926.6 113.599 927.612C114.045 928.313 115.159 927.663 114.71 926.957C109.54 918.826 104.775 910.44 100.307 901.898C95.8336 893.347 91.6526 884.643 87.6261 875.869C83.578 867.049 79.6857 858.157 75.8037 849.262C71.7175 839.899 67.632 830.535 63.5472 821.171L51.2462 792.977L49.7154 789.469C49.3825 788.706 48.2733 789.366 48.6041 790.124L48.6042 790.124Z" fill="white"/>
<path d="M111.385 926.839C97.462 930.051 82.8726 928.456 69.9557 922.307C57.0388 916.158 46.5424 905.812 40.1492 892.929C38.5563 889.718 37.2122 886.293 37.0497 882.707C36.8871 879.121 38.0637 875.328 40.7942 873.026C43.7742 870.514 48.1126 870.179 51.8492 871.247C55.5857 872.315 58.8512 874.598 61.9738 876.927C80.7823 890.958 98.1096 907.51 111.409 926.923L111.385 926.839Z" fill="#F2F2F2"/>
<path d="M39.5911 874.455L53.5228 885.742L67.4545 897.03C71.8667 900.605 76.2761 904.184 80.7404 907.692C85.1656 911.17 89.6455 914.579 94.2308 917.84C98.8097 921.096 103.494 924.204 108.321 927.075C108.922 927.433 109.525 927.786 110.13 928.136C110.549 928.379 110.954 927.738 110.532 927.494C105.671 924.68 100.953 921.624 96.3473 918.406C91.7363 915.184 87.2364 911.804 82.7979 908.346C78.3358 904.869 73.9353 901.312 69.5392 897.751C64.9119 894.002 60.2849 890.253 55.6581 886.504L41.7264 875.217L39.9927 873.812C39.6157 873.506 39.2164 874.151 39.5911 874.455V874.455Z" fill="white"/>
<path d="M623.62 517H249.349C247.922 517.002 246.555 517.574 245.546 518.591C244.538 519.609 243.971 520.988 243.969 522.427V778.259C243.971 779.698 244.538 781.078 245.546 782.095C246.555 783.112 247.922 783.685 249.349 783.686H623.62C625.046 783.685 626.414 783.112 627.422 782.095C628.431 781.078 628.998 779.698 629 778.259V522.427C628.998 520.988 628.431 519.609 627.422 518.591C626.414 517.574 625.046 517.002 623.62 517ZM627.463 778.259C627.462 779.287 627.057 780.273 626.337 781C625.616 781.727 624.639 782.135 623.62 782.136H249.349C248.33 782.135 247.353 781.727 246.632 781C245.911 780.273 245.506 779.287 245.506 778.259V522.427C245.506 521.399 245.911 520.413 246.632 519.686C247.353 518.959 248.33 518.551 249.349 518.551H623.62C624.639 518.551 625.616 518.959 626.337 519.686C627.057 520.413 627.462 521.399 627.463 522.427V778.259Z" fill="#4B7CB8"/>
<path d="M628.231 538.738H244.738V540.289H628.231V538.738Z" fill="#4B7CB8"/>
<path d="M257.803 533.28C260.349 533.28 262.414 531.198 262.414 528.629C262.414 526.06 260.349 523.977 257.803 523.977C255.256 523.977 253.191 526.06 253.191 528.629C253.191 531.198 255.256 533.28 257.803 533.28Z" fill="#4B7CB8"/>
<path d="M271.06 533.28C273.606 533.28 275.671 531.198 275.671 528.629C275.671 526.06 273.606 523.977 271.06 523.977C268.513 523.977 266.448 526.06 266.448 528.629C266.448 531.198 268.513 533.28 271.06 533.28Z" fill="#4B7CB8"/>
<path d="M284.317 533.28C286.863 533.28 288.928 531.198 288.928 528.629C288.928 526.06 286.863 523.977 284.317 523.977C281.77 523.977 279.706 526.06 279.706 528.629C279.706 531.198 281.77 533.28 284.317 533.28Z" fill="#4B7CB8"/>
<path d="M338.396 574.756H273.84C272.413 574.756 271.045 574.184 270.036 573.167C269.027 572.149 268.46 570.769 268.46 569.329C268.46 567.89 269.027 566.51 270.036 565.492C271.045 564.474 272.413 563.903 273.84 563.903H338.396C339.823 563.903 341.191 564.474 342.2 565.492C343.209 566.51 343.776 567.89 343.776 569.329C343.776 570.769 343.209 572.149 342.2 573.167C341.191 574.184 339.823 574.756 338.396 574.756Z" fill="#CCCCCC"/>
<path d="M426.777 601.115H273.84C272.413 601.115 271.045 600.543 270.036 599.525C269.027 598.508 268.46 597.127 268.46 595.688C268.46 594.249 269.027 592.868 270.036 591.851C271.045 590.833 272.413 590.261 273.84 590.261H426.777C428.203 590.261 429.572 590.833 430.581 591.851C431.589 592.868 432.156 594.249 432.156 595.688C432.156 597.127 431.589 598.508 430.581 599.525C429.572 600.543 428.203 601.115 426.777 601.115Z" fill="#CCCCCC"/>
<path d="M476.454 611.217L476.03 610.858L475.718 611.317C468.462 621.988 464.234 634.454 463.488 647.371C462.742 660.287 465.506 673.164 471.484 684.613C477.461 696.061 486.425 705.646 497.408 712.332C508.391 719.019 520.975 722.553 533.804 722.554L534.304 722.554V722.054V660.468V660.236L534.127 660.086L476.454 611.217Z" fill="#26CDEF" stroke="#4B7CB8"/>
<path d="M534.304 580.958V580.458L533.805 580.458C522.364 580.451 511.095 583.258 500.973 588.635C490.851 594.012 482.182 601.798 475.717 611.317L475.465 611.689L475.808 611.98L533.481 660.849L534.304 661.547V660.468V580.958Z" fill="#CCCCCC" stroke="#4B7CB8"/>
<path d="M533.804 722.829H533.036V580.183H533.804C552.556 580.183 570.54 587.697 583.8 601.073C597.059 614.449 604.509 632.59 604.509 651.506C604.509 670.422 597.059 688.563 583.8 701.939C570.54 715.315 552.556 722.829 533.804 722.829ZM534.573 581.738V721.274C552.783 721.07 570.178 713.63 582.984 700.568C595.789 687.506 602.971 669.877 602.971 651.506C602.971 633.136 595.789 615.506 582.984 602.444C570.178 589.382 552.783 581.942 534.573 581.738Z" fill="#4B7CB8"/>
<path d="M318.415 751.901H305.35C304.433 751.9 303.554 751.532 302.905 750.878C302.257 750.224 301.892 749.337 301.891 748.412V710.425C301.892 709.5 302.257 708.613 302.905 707.959C303.554 707.305 304.433 706.937 305.35 706.936H318.415C319.332 706.937 320.211 707.305 320.859 707.959C321.507 708.613 321.872 709.5 321.873 710.425V748.412C321.872 749.337 321.507 750.224 320.859 750.878C320.211 751.532 319.332 751.9 318.415 751.901Z" fill="#CCCCCC"/>
<path d="M356.841 751.901H343.776C342.859 751.9 341.98 751.532 341.332 750.878C340.683 750.224 340.319 749.337 340.318 748.412V692.594C340.319 691.669 340.683 690.783 341.332 690.129C341.98 689.475 342.859 689.107 343.776 689.106H356.841C357.758 689.107 358.637 689.475 359.285 690.129C359.934 690.783 360.298 691.669 360.299 692.594V748.412C360.298 749.337 359.934 750.224 359.285 750.878C358.637 751.532 357.758 751.9 356.841 751.901Z" fill="#FF6584"/>
<path d="M395.267 751.901H382.202C381.285 751.9 380.406 751.532 379.758 750.878C379.11 750.224 378.745 749.337 378.744 748.412V677.089C378.745 676.164 379.11 675.278 379.758 674.624C380.406 673.97 381.285 673.602 382.202 673.601H395.267C396.184 673.602 397.063 673.97 397.712 674.624C398.36 675.278 398.725 676.164 398.726 677.089V748.412C398.725 749.337 398.36 750.224 397.712 750.878C397.063 751.532 396.184 751.9 395.267 751.901Z" fill="#26CDEF"/>
<path d="M318.415 752.289H305.35C304.331 752.287 303.354 751.879 302.634 751.152C301.914 750.425 301.508 749.44 301.507 748.412V663.135C301.508 662.107 301.914 661.122 302.634 660.395C303.354 659.668 304.331 659.26 305.35 659.259H318.415C319.433 659.26 320.41 659.668 321.131 660.395C321.851 661.122 322.256 662.107 322.257 663.135V748.412C322.256 749.44 321.851 750.425 321.131 751.152C320.41 751.879 319.433 752.287 318.415 752.289ZM305.35 660.809C304.738 660.81 304.152 661.055 303.72 661.491C303.288 661.927 303.045 662.518 303.044 663.135V748.412C303.045 749.029 303.288 749.62 303.72 750.056C304.152 750.492 304.738 750.737 305.35 750.738H318.415C319.026 750.737 319.612 750.492 320.044 750.056C320.476 749.62 320.72 749.029 320.72 748.412V663.135C320.72 662.518 320.476 661.927 320.044 661.491C319.612 661.055 319.026 660.81 318.415 660.809H305.35Z" fill="#4B7CB8"/>
<path d="M356.841 752.289H343.776C342.757 752.287 341.781 751.879 341.06 751.152C340.34 750.425 339.935 749.44 339.933 748.412V663.135C339.935 662.107 340.34 661.122 341.06 660.395C341.781 659.668 342.757 659.26 343.776 659.259H356.841C357.86 659.26 358.836 659.668 359.557 660.395C360.277 661.122 360.682 662.107 360.684 663.135V748.412C360.682 749.44 360.277 750.425 359.557 751.152C358.836 751.879 357.86 752.287 356.841 752.289ZM343.776 660.809C343.165 660.81 342.579 661.055 342.146 661.491C341.714 661.927 341.471 662.518 341.47 663.135V748.412C341.471 749.029 341.714 749.62 342.146 750.056C342.579 750.492 343.165 750.737 343.776 750.738H356.841C357.452 750.737 358.038 750.492 358.47 750.056C358.903 749.62 359.146 749.029 359.146 748.412V663.135C359.146 662.518 358.903 661.927 358.47 661.491C358.038 661.055 357.452 660.81 356.841 660.809H343.776Z" fill="#4B7CB8"/>
<path d="M395.267 752.289H382.202C381.183 752.287 380.207 751.879 379.486 751.152C378.766 750.425 378.361 749.44 378.36 748.412V663.135C378.361 662.107 378.766 661.122 379.486 660.395C380.207 659.668 381.183 659.26 382.202 659.259H395.267C396.286 659.26 397.263 659.668 397.983 660.395C398.703 661.122 399.109 662.107 399.11 663.135V748.412C399.109 749.44 398.703 750.425 397.983 751.152C397.263 751.879 396.286 752.287 395.267 752.289ZM382.202 660.809C381.591 660.81 381.005 661.055 380.573 661.491C380.14 661.927 379.897 662.518 379.897 663.135V748.412C379.897 749.029 380.14 749.62 380.573 750.056C381.005 750.492 381.591 750.737 382.202 750.738H395.267C395.878 750.737 396.465 750.492 396.897 750.056C397.329 749.62 397.572 749.029 397.573 748.412V663.135C397.572 662.518 397.329 661.927 396.897 661.491C396.465 661.055 395.878 660.81 395.267 660.809H382.202Z" fill="#4B7CB8"/>
<path d="M121.406 795.317C121.705 794.218 121.761 793.066 121.571 791.943C121.38 790.819 120.948 789.752 120.304 788.815C119.661 787.878 118.821 787.095 117.845 786.522C116.869 785.948 115.78 785.596 114.655 785.493L108.046 758.604L98.3727 769.188L106.132 793.1C106.085 795.018 106.737 796.887 107.964 798.353C109.192 799.819 110.91 800.779 112.793 801.052C114.676 801.326 116.592 800.893 118.18 799.836C119.767 798.779 120.915 797.171 121.406 795.317H121.406Z" fill="#FFB8B8"/>
<path d="M103.687 787.047C103.238 786.858 102.834 786.576 102.501 786.22C102.168 785.863 101.913 785.44 101.752 784.978L90.719 750.728C87.8683 742.502 88.0768 733.511 91.3059 725.428L101.941 698.794C102.18 697.337 102.702 695.942 103.476 694.688C104.25 693.435 105.261 692.347 106.452 691.488C107.643 690.629 108.99 690.015 110.416 689.682C111.842 689.348 113.32 689.301 114.764 689.544C116.208 689.787 117.591 690.315 118.833 691.097C120.075 691.879 121.151 692.9 122.002 694.103C122.852 695.305 123.459 696.664 123.788 698.104C124.117 699.543 124.162 701.033 123.92 702.49L109.247 745.561L114.383 780.632C114.451 781.346 114.3 782.063 113.951 782.688C113.602 783.312 113.071 783.813 112.431 784.124L106.506 786.975C105.871 787.281 105.158 787.384 104.463 787.27C104.197 787.227 103.936 787.152 103.687 787.047Z" fill="#2F2E41"/>
<path d="M158.228 918.923L167.65 918.923L172.132 882.262L158.226 882.263L158.228 918.923Z" fill="#FFB8B8"/>
<path d="M185.821 927.748L156.209 927.749L156.209 916.208L174.379 916.207C177.414 916.207 180.324 917.423 182.47 919.587C184.615 921.751 185.821 924.687 185.821 927.748Z" fill="#2F2E41"/>
<path d="M111.348 918.923L120.77 918.923L125.252 882.262L111.346 882.263L111.348 918.923Z" fill="#FFB8B8"/>
<path d="M138.941 927.748L109.329 927.749L109.329 916.208L127.499 916.207C130.534 916.207 133.444 917.423 135.59 919.587C137.735 921.751 138.941 924.687 138.941 927.748Z" fill="#2F2E41"/>
<path d="M160.803 769.508L169.085 835.703C170.224 844.804 171.021 853.938 171.475 863.105L173.707 908.123C173.727 908.543 173.663 908.962 173.518 909.356C173.374 909.75 173.151 910.111 172.864 910.415C172.576 910.72 172.231 910.962 171.848 911.128C171.465 911.293 171.053 911.379 170.636 911.379H158.066C157.331 911.379 156.62 911.113 156.062 910.629C155.504 910.146 155.137 909.477 155.027 908.743L143.722 833.611C143.667 833.249 143.487 832.918 143.214 832.676C142.941 832.435 142.591 832.3 142.228 832.293C141.865 832.287 141.511 832.411 141.23 832.642C140.949 832.874 140.758 833.199 140.691 833.559L127.072 907.143C126.937 907.805 126.592 908.404 126.089 908.849C125.586 909.295 124.952 909.563 124.285 909.612L112.715 910.352C112.286 910.384 111.855 910.324 111.449 910.177C111.044 910.03 110.674 909.798 110.363 909.498C110.052 909.197 109.808 908.834 109.645 908.432C109.482 908.029 109.405 907.597 109.418 907.163L113.155 786.563L160.803 769.508Z" fill="#2F2E41"/>
<path d="M124.107 675.222C134.532 675.222 142.983 666.697 142.983 656.181C142.983 645.665 134.532 637.14 124.107 637.14C113.683 637.14 105.232 645.665 105.232 656.181C105.232 666.697 113.683 675.222 124.107 675.222Z" fill="#FFB8B8"/>
<path d="M109.312 788.114C113.923 798.968 133.905 806.72 138.516 791.215C142.082 779.23 156.207 774.191 162.44 772.524C163.224 772.313 163.894 771.8 164.305 771.094C164.716 770.389 164.836 769.549 164.638 768.756L147.215 699.72C146.201 695.698 144.18 692.007 141.346 688.999C138.512 685.991 134.96 683.767 131.03 682.54C117.182 678.214 102.58 687.122 100.236 701.549C99.5954 705.595 99.1874 709.674 99.0138 713.767C97.5687 744.227 106.276 780.966 109.312 788.114Z" fill="#26CDEF"/>
<path d="M171.862 788.094C171.749 786.96 171.391 785.865 170.813 784.886C170.235 783.906 169.451 783.067 168.517 782.426C167.582 781.786 166.52 781.359 165.405 781.178C164.289 780.996 163.148 781.063 162.061 781.375L146.312 758.679L141.057 772.064L156.819 791.564C157.458 793.371 158.733 794.879 160.401 795.801C162.068 796.724 164.014 796.997 165.868 796.569C167.722 796.142 169.357 795.043 170.462 793.481C171.566 791.919 172.065 790.002 171.862 788.094L171.862 788.094Z" fill="#FFB8B8"/>
<path d="M152.38 786.802C151.894 786.788 151.417 786.672 150.979 786.46C150.541 786.248 150.152 785.946 149.837 785.572L127.337 757.613C121.745 750.97 118.736 742.505 118.869 733.791L119.303 705.081C119.008 703.635 118.998 702.144 119.274 700.695C119.55 699.245 120.106 697.864 120.911 696.631C121.717 695.398 122.755 694.337 123.967 693.509C125.178 692.681 126.54 692.102 127.974 691.805C129.407 691.508 130.885 691.499 132.322 691.778C133.759 692.058 135.128 692.62 136.35 693.433C137.571 694.246 138.622 695.294 139.442 696.517C140.262 697.74 140.836 699.113 141.129 700.56L142.785 746.073L160.075 776.937C160.393 777.579 160.508 778.303 160.405 779.012C160.302 779.721 159.985 780.382 159.498 780.904L154.986 785.713C154.501 786.228 153.873 786.583 153.184 786.729C152.92 786.785 152.65 786.81 152.38 786.802Z" fill="#2F2E41"/>
<path d="M109.78 671.755C110.187 671.998 110.643 672.144 111.115 672.18C111.586 672.217 112.059 672.144 112.498 671.966C112.936 671.789 113.328 671.512 113.644 671.157C113.959 670.802 114.19 670.378 114.317 669.919L114.327 669.876C114.67 668.431 114.385 666.922 114.287 665.439C114.189 663.956 114.333 662.328 115.334 661.238C117.2 659.206 120.519 660.283 123.217 659.769C124.798 659.413 126.196 658.488 127.149 657.168C128.102 655.848 128.546 654.222 128.397 652.596C128.359 652.287 128.299 651.979 128.231 651.671C128.062 650.889 128.075 650.079 128.269 649.304C128.463 648.529 128.832 647.81 129.348 647.202C129.864 646.595 130.512 646.117 131.242 645.805C131.972 645.494 132.763 645.357 133.554 645.406C136.281 645.563 139.225 646.396 141.481 644.359C142.308 643.555 142.882 642.524 143.132 641.393C143.381 640.262 143.295 639.083 142.884 638.001C141.596 634.25 137.955 632.286 134.352 631.207C129.896 629.908 125.209 629.627 120.632 630.385C116.055 631.142 111.703 632.919 107.892 635.587C105.616 637.205 103.491 639.238 102.521 641.871C101.551 644.503 102.019 647.825 104.206 649.563C102.511 651.373 101.317 653.602 100.744 656.025C100.171 658.447 100.24 660.979 100.943 663.367C102.023 666.879 107.179 670.245 109.78 671.755Z" fill="#2F2E41"/>
<path d="M247.195 929H43.5355C43.3317 929 43.1362 928.918 42.9921 928.773C42.8479 928.628 42.767 928.43 42.767 928.225C42.767 928.019 42.8479 927.822 42.9921 927.677C43.1362 927.531 43.3317 927.449 43.5355 927.449H247.195C247.398 927.449 247.594 927.531 247.738 927.677C247.882 927.822 247.963 928.019 247.963 928.225C247.963 928.43 247.882 928.628 247.738 928.773C247.594 928.918 247.398 929 247.195 929Z" fill="#3F3D56"/>
</g>
<rect x="1710.57" y="885.533" width="93.7531" height="92.9743" transform="rotate(47.0366 1710.57 885.533)" stroke="#4B7CB8" stroke-width="5"/>
</g>
<defs>
<linearGradient id="paint0_linear" x1="2116" y1="1273" x2="1286" y2="471" gradientUnits="userSpaceOnUse">
<stop stop-color="white"/>
<stop offset="1" stop-color="white" stop-opacity="0"/>
</linearGradient>
<linearGradient id="paint1_linear" x1="941.478" y1="915.855" x2="-3.04035" y2="35.0896" gradientUnits="userSpaceOnUse">
<stop stop-color="#101E30"/>
<stop offset="1" stop-color="#306199"/>
</linearGradient>
<clipPath id="clip0">
<rect width="1920" height="1080" fill="white"/>
</clipPath>
<clipPath id="clip1">
<rect width="594" height="412" fill="white" transform="translate(35 517)"/>
</clipPath>
</defs>
</svg>
